# Blender v2.90.0 OBJ File: ''
# www.blender.org
mtllib BuffalordEgg.mtl
o PfEggBuffalordout
v 0.036386 0.015851 -0.063022
v 0.000000 0.000000 0.000000
v -0.036386 0.015851 -0.063022
v 0.067232 0.060989 -0.116449
v -0.067232 0.060989 -0.116449
v 0.000000 0.128543 -0.162705
v 0.083360 0.128543 -0.144383
v -0.083360 0.128543 -0.144383
v 0.000000 0.221904 -0.176004
v -0.088652 0.221904 -0.153550
v -0.152424 0.221904 -0.088002
v -0.084161 0.281529 -0.145771
v -0.140906 0.128543 -0.081352
v -0.067232 0.060989 -0.116449
v -0.134464 0.060989 0.000000
v -0.072771 0.015851 0.000000
v -0.036386 0.015851 -0.063022
v 0.000000 0.000000 0.000000
v -0.166719 0.128543 0.000000
v -0.177304 0.221904 0.000000
v -0.140907 0.128543 0.081352
v -0.134464 0.060989 0.000000
v -0.067232 0.060989 0.116449
v -0.072771 0.015851 0.000000
v -0.036386 0.015851 0.063022
v 0.000000 0.000000 0.000000
v -0.083360 0.128543 0.144383
v -0.088652 0.221904 0.153550
v -0.152424 0.221904 0.088002
v -0.084161 0.281529 0.145771
v -0.168322 0.281529 0.000000
v -0.144276 0.281529 0.083298
v -0.075245 0.340996 0.130328
v -0.144276 0.281529 -0.083298
v -0.128991 0.340996 0.074473
v -0.062419 0.395073 0.108113
v -0.150490 0.340996 0.000000
v -0.107004 0.395073 0.061779
v -0.048502 0.438862 0.084008
v -0.124838 0.395073 0.000000
v -0.097004 0.438862 0.000000
v -0.083147 0.438862 0.048005
v -0.036313 0.467464 0.062896
v -0.072627 0.467464 0.000000
v -0.062251 0.467464 0.035941
v -0.025142 0.484757 0.043548
v -0.050284 0.484757 0.000000
v -0.128991 0.340996 -0.074473
v -0.124838 0.395073 0.000000
v -0.044121 0.484450 0.025473
v -0.028558 0.493390 0.016488
v -0.014279 0.494620 0.024732
v -0.028558 0.494620 0.000000
v 0.000000 0.499128 0.000000
v -0.075245 0.340996 -0.130328
v -0.107004 0.395073 -0.061779
v -0.097004 0.438862 0.000000
v -0.062419 0.395073 -0.108113
v -0.048502 0.438862 -0.084008
v -0.083147 0.438862 -0.048005
v -0.072627 0.467464 0.000000
v -0.036313 0.467464 -0.062896
v -0.062251 0.467464 -0.035941
v -0.050284 0.484757 0.000000
v -0.025142 0.484757 -0.043548
v 0.000000 0.281529 -0.166596
v -0.044121 0.484450 -0.025473
v -0.028558 0.493390 -0.016488
v -0.028558 0.494620 0.000000
v -0.014279 0.494620 -0.024732
v 0.000000 0.499128 0.000000
v 0.000000 0.340996 -0.148946
v -0.062419 0.395073 -0.108113
v 0.000000 0.395073 -0.123557
v -0.048502 0.438862 -0.084008
v 0.000000 0.438862 -0.096009
v -0.036313 0.467464 -0.062896
v 0.000000 0.467464 -0.071882
v -0.025142 0.484757 -0.043548
v 0.062419 0.395073 -0.108113
v 0.048502 0.438862 -0.084008
v 0.036313 0.467464 -0.062896
v 0.075245 0.340996 -0.130328
v 0.025142 0.484757 -0.043548
v 0.000000 0.484450 -0.050946
v 0.000000 0.493390 -0.032976
v -0.014279 0.494620 -0.024732
v 0.014279 0.494620 -0.024732
v 0.000000 0.499128 0.000000
v 0.084161 0.281529 -0.145771
v 0.088652 0.221904 -0.153550
v 0.140907 0.128543 -0.081352
v 0.067232 0.060989 -0.116449
v 0.152424 0.221904 -0.088002
v 0.144276 0.281529 -0.083298
v 0.134464 0.060989 0.000000
v 0.036386 0.015851 -0.063022
v 0.072771 0.015851 0.000000
v 0.000000 0.000000 0.000000
v 0.166719 0.128543 0.000000
v 0.128991 0.340996 -0.074473
v 0.062419 0.395073 -0.108113
v 0.107004 0.395073 -0.061779
v 0.048502 0.438862 -0.084008
v 0.083147 0.438862 -0.048005
v 0.036313 0.467464 -0.062896
v 0.062251 0.467464 -0.035941
v 0.025142 0.484757 -0.043548
v 0.124838 0.395073 0.000000
v 0.097004 0.438862 0.000000
v 0.072627 0.467464 0.000000
v 0.150490 0.340996 0.000000
v 0.050284 0.484757 0.000000
v 0.044121 0.484450 -0.025473
v 0.028558 0.493390 -0.016488
v 0.014279 0.494620 -0.024732
v 0.028558 0.494620 0.000000
v 0.000000 0.499128 0.000000
v 0.168322 0.281529 0.000000
v 0.177304 0.221904 0.000000
v 0.140906 0.128543 0.081352
v 0.134464 0.060989 0.000000
v 0.152424 0.221904 0.088002
v 0.144276 0.281529 0.083298
v 0.067232 0.060989 0.116449
v 0.072771 0.015851 0.000000
v 0.036386 0.015851 0.063022
v 0.000000 0.000000 0.000000
v 0.083360 0.128543 0.144383
v 0.128991 0.340996 0.074473
v 0.124838 0.395073 0.000000
v 0.107004 0.395073 0.061779
v 0.097004 0.438862 0.000000
v 0.083147 0.438862 0.048005
v 0.072627 0.467464 0.000000
v 0.062251 0.467464 0.035941
v 0.050284 0.484757 0.000000
v 0.062419 0.395073 0.108113
v 0.048502 0.438862 0.084008
v 0.036313 0.467464 0.062896
v 0.075245 0.340996 0.130328
v 0.025142 0.484757 0.043548
v 0.044121 0.484450 0.025473
v 0.028558 0.493390 0.016488
v 0.028558 0.494620 0.000000
v 0.014279 0.494620 0.024732
v 0.000000 0.499128 0.000000
v 0.084161 0.281529 0.145771
v 0.088652 0.221904 0.153550
v 0.000000 0.128543 0.162705
v 0.067232 0.060989 0.116449
v 0.000000 0.221904 0.176004
v 0.000000 0.281529 0.166596
v -0.067232 0.060989 0.116449
v 0.036386 0.015851 0.063022
v -0.036386 0.015851 0.063022
v 0.000000 0.000000 0.000000
v -0.083360 0.128543 0.144383
v -0.088652 0.221904 0.153550
v -0.084161 0.281529 0.145771
v -0.075245 0.340996 0.130328
v 0.000000 0.340996 0.148946
v 0.062419 0.395073 0.108113
v -0.062419 0.395073 0.108113
v 0.000000 0.395073 0.123557
v 0.048502 0.438862 0.084008
v -0.048502 0.438862 0.084008
v 0.000000 0.438862 0.096009
v 0.036313 0.467464 0.062896
v -0.036313 0.467464 0.062896
v 0.000000 0.467464 0.071882
v 0.025142 0.484757 0.043548
v -0.025142 0.484757 0.043548
v 0.000000 0.484450 0.050946
v 0.000000 0.493390 0.032976
v 0.014279 0.494620 0.024732
v -0.014279 0.494620 0.024732
v 0.000000 0.499128 0.000000
vt 0.544208 -0.832740
vt 0.578530 -0.885585
vt 0.612853 -0.832741
vt 0.518982 -0.770909
vt 0.639446 -0.770911
vt 0.580605 -0.673413
vt 0.496452 -0.673412
vt 0.664758 -0.673414
vt 0.581387 -0.534588
vt 0.665986 -0.534588
vt 0.750648 -0.534588
vt 0.666623 -0.444477
vt 0.749776 -0.673415
vt 0.688179 -0.770911
vt 0.808642 -0.770912
vt 0.779575 -0.832742
vt 0.715835 -0.832742
vt 0.747705 -0.878397
vt 0.834795 -0.673416
vt 0.834795 -0.534588
vt 0.915494 -0.673416
vt 0.860016 -0.770913
vt 0.980492 -0.770914
vt 0.886955 -0.832744
vt 0.953396 -0.832744
vt 0.920175 -0.882353
vt 0.996194 -0.673417
vt 0.996436 -0.534588
vt 0.915840 -0.534588
vt 0.995960 -0.444477
vt 0.834547 -0.444477
vt 0.915787 -0.444477
vt 0.995496 -0.347797
vt 0.751173 -0.444477
vt 0.916178 -0.353948
vt 0.978937 -0.275721
vt 0.835927 -0.347797
vt 0.917502 -0.275721
vt 0.962377 -0.203644
vt 0.856068 -0.275721
vt 0.876209 -0.203644
vt 0.918819 -0.214304
vt 0.952798 -0.174208
vt 0.885578 -0.174209
vt 0.919188 -0.174209
vt 0.943218 -0.144773
vt 0.894948 -0.144773
vt 0.751784 -0.353948
vt 0.816152 -0.275721
vt 0.919109 -0.148996
vt 0.919083 -0.132229
vt 0.931150 -0.125956
vt 0.907015 -0.125957
vt 0.919082 -0.107140
vt 0.667523 -0.347797
vt 0.752511 -0.275721
vt 0.796377 -0.203644
vt 0.688870 -0.275721
vt 0.710217 -0.203644
vt 0.753150 -0.214304
vt 0.786431 -0.174208
vt 0.720556 -0.174209
vt 0.753493 -0.174209
vt 0.776484 -0.144773
vt 0.730895 -0.144773
vt 0.581854 -0.444477
vt 0.753640 -0.149323
vt 0.753689 -0.133538
vt 0.765086 -0.127920
vt 0.742292 -0.127920
vt 0.753689 -0.111067
vt 0.582416 -0.353948
vt 0.647249 -0.275721
vt 0.583120 -0.275721
vt 0.626976 -0.203644
vt 0.583748 -0.214304
vt 0.617181 -0.174209
vt 0.584081 -0.174209
vt 0.607386 -0.144774
vt 0.518991 -0.275721
vt 0.540815 -0.203644
vt 0.550981 -0.174208
vt 0.497167 -0.347797
vt 0.561147 -0.144772
vt 0.584223 -0.149183
vt 0.584278 -0.132977
vt 0.595844 -0.127079
vt 0.572724 -0.127078
vt 0.584302 -0.109385
vt 0.497150 -0.444477
vt 0.496872 -0.534588
vt 0.412767 -0.673411
vt 0.473230 -0.770909
vt 0.412814 -0.534588
vt 0.412798 -0.444477
vt 0.352756 -0.770907
vt 0.446575 -0.832739
vt 0.379520 -0.832738
vt 0.413047 -0.883249
vt 0.329083 -0.673410
vt 0.412541 -0.353948
vt 0.475524 -0.275721
vt 0.411792 -0.275721
vt 0.453881 -0.203644
vt 0.411004 -0.214304
vt 0.444137 -0.174209
vt 0.410628 -0.174209
vt 0.434393 -0.144773
vt 0.348061 -0.275721
vt 0.367713 -0.203644
vt 0.377120 -0.174209
vt 0.328408 -0.347797
vt 0.386527 -0.144773
vt 0.410502 -0.149045
vt 0.410460 -0.132426
vt 0.422426 -0.126253
vt 0.398493 -0.126253
vt 0.410459 -0.107733
vt 0.328907 -0.444477
vt 0.328936 -0.534588
vt 0.245697 -0.673409
vt 0.305536 -0.770907
vt 0.245660 -0.534588
vt 0.245587 -0.444477
vt 0.185060 -0.770906
vt 0.278053 -0.832737
vt 0.212207 -0.832736
vt 0.245129 -0.881472
vt 0.162311 -0.673408
vt 0.245493 -0.353948
vt 0.308333 -0.275721
vt 0.245346 -0.275721
vt 0.288258 -0.203644
vt 0.245201 -0.214304
vt 0.278527 -0.174209
vt 0.245111 -0.174209
vt 0.268796 -0.144773
vt 0.182360 -0.275721
vt 0.202089 -0.203644
vt 0.211695 -0.174208
vt 0.162632 -0.347797
vt 0.221302 -0.144773
vt 0.245065 -0.149091
vt 0.245050 -0.132608
vt 0.256923 -0.126526
vt 0.233176 -0.126526
vt 0.245050 -0.108279
vt 0.163446 -0.444477
vt 0.162940 -0.534588
vt 0.082897 -0.673407
vt 0.139104 -0.770905
vt 0.082921 -0.534588
vt 0.083087 -0.444477
vt 0.018628 -0.770904
vt 0.112114 -0.832735
vt 0.044987 -0.832734
vt 0.078550 -0.883350
vt 0.003484 -0.673406
vt 0.003303 -0.534588
vt 0.003620 -0.444477
vt 0.003949 -0.347797
vt 0.082842 -0.353948
vt 0.142914 -0.275721
vt 0.020489 -0.275721
vt 0.081702 -0.275721
vt 0.123197 -0.203644
vt 0.037029 -0.203644
vt 0.080512 -0.214304
vt 0.112885 -0.174209
vt 0.047358 -0.174209
vt 0.080122 -0.174209
vt 0.102572 -0.144773
vt 0.057688 -0.144773
vt 0.080128 -0.149409
vt 0.080130 -0.133883
vt 0.091351 -0.128439
vt 0.068909 -0.128439
vt 0.080130 -0.112105
vn 0.2942 -0.8697 -0.3963
vn -0.0000 -1.0000 -0.0000
vn -0.1961 -0.8697 -0.4529
vn 0.3903 -0.6595 -0.6424
vn -0.3611 -0.6595 -0.6592
vn -0.0062 -0.3256 -0.9455
vn 0.4853 -0.2516 -0.8374
vn -0.4825 -0.2516 -0.8390
vn -0.0068 -0.0232 -0.9997
vn -0.4986 -0.0147 -0.8667
vn -0.8692 -0.0232 -0.4940
vn -0.4880 0.2176 -0.8453
vn -0.8219 -0.3256 -0.4674
vn -0.7448 -0.6673 -0.0000
vn -0.5057 -0.8627 -0.0000
vn -0.9686 -0.2487 -0.0000
vn -0.9998 -0.0186 -0.0000
vn -0.8203 -0.3206 0.4736
vn -0.3795 -0.6511 0.6573
vn -0.2352 -0.8824 0.4074
vn -0.4853 -0.2516 0.8374
vn -0.5013 -0.0147 0.8651
vn -0.8657 -0.0291 0.4998
vn -0.4881 0.2173 0.8453
vn -0.9760 0.2176 0.0000
vn -0.8453 0.2174 0.4880
vn -0.4682 0.3506 0.8110
vn -0.8453 0.2174 -0.4880
vn -0.8121 0.3473 0.4689
vn -0.4408 0.4720 0.7635
vn -0.9365 0.3507 0.0000
vn -0.7650 0.4688 0.4417
vn -0.4090 0.5752 0.7084
vn -0.8816 0.4720 0.0000
vn -0.8180 0.5752 -0.0000
vn -0.7101 0.5725 0.4099
vn -0.3579 0.6982 0.6200
vn -0.7159 0.6982 -0.0000
vn -0.6232 0.6944 0.3598
vn -0.2841 0.8229 0.4920
vn -0.5681 0.8230 0.0000
vn -0.8121 0.3473 -0.4689
vn -0.4921 0.8228 0.2841
vn -0.3198 0.9293 0.1846
vn -0.1305 0.9653 0.2260
vn -0.2610 0.9653 0.0000
vn -0.0000 1.0000 -0.0000
vn -0.4683 0.3507 -0.8110
vn -0.7650 0.4688 -0.4417
vn -0.4408 0.4720 -0.7635
vn -0.4090 0.5752 -0.7084
vn -0.7101 0.5725 -0.4100
vn -0.3579 0.6982 -0.6200
vn -0.6232 0.6944 -0.3598
vn -0.2841 0.8229 -0.4920
vn -0.0000 0.2174 -0.9761
vn -0.4921 0.8228 -0.2841
vn -0.3198 0.9293 -0.1846
vn -0.1305 0.9653 -0.2260
vn -0.0000 0.3473 -0.9377
vn -0.0000 0.4688 -0.8833
vn 0.0000 0.5725 -0.8199
vn -0.3580 0.6982 -0.6200
vn -0.0000 0.6944 -0.7195
vn -0.2840 0.8229 -0.4920
vn 0.4408 0.4720 -0.7635
vn 0.4090 0.5752 -0.7084
vn 0.3580 0.6982 -0.6200
vn 0.4682 0.3507 -0.8110
vn 0.2840 0.8229 -0.4920
vn -0.0000 0.8228 -0.5683
vn 0.0000 0.9293 -0.3692
vn 0.1305 0.9653 -0.2260
vn 0.4880 0.2176 -0.8453
vn 0.5013 -0.0147 -0.8651
vn 0.8157 -0.3256 -0.4781
vn 0.3904 -0.6595 -0.6424
vn 0.8624 -0.0232 -0.5057
vn 0.8453 0.2174 -0.4880
vn 0.7515 -0.6595 0.0168
vn 0.2942 -0.8697 -0.3962
vn 0.4903 -0.8697 0.0567
vn 0.9678 -0.2516 0.0016
vn 0.8121 0.3473 -0.4689
vn 0.7650 0.4688 -0.4417
vn 0.7101 0.5725 -0.4100
vn 0.3579 0.6982 -0.6200
vn 0.6232 0.6944 -0.3598
vn 0.2841 0.8229 -0.4920
vn 0.8816 0.4720 -0.0000
vn 0.8180 0.5752 0.0000
vn 0.7159 0.6982 0.0000
vn 0.9365 0.3507 -0.0000
vn 0.5681 0.8230 -0.0000
vn 0.4921 0.8228 -0.2841
vn 0.3198 0.9293 -0.1846
vn 0.2610 0.9653 -0.0000
vn 0.9760 0.2176 0.0000
vn 0.9999 -0.0147 0.0016
vn 0.8219 -0.3256 0.4674
vn 0.7515 -0.6595 0.0169
vn 0.8692 -0.0232 0.4940
vn 0.8453 0.2174 0.4880
vn 0.3611 -0.6595 0.6592
vn 0.1961 -0.8697 0.4529
vn 0.4825 -0.2516 0.8390
vn 0.8121 0.3473 0.4689
vn 0.7650 0.4688 0.4417
vn 0.7101 0.5725 0.4100
vn 0.6232 0.6944 0.3598
vn 0.4408 0.4720 0.7635
vn 0.4090 0.5752 0.7084
vn 0.3579 0.6982 0.6200
vn 0.4683 0.3507 0.8110
vn 0.2841 0.8229 0.4920
vn 0.4921 0.8228 0.2841
vn 0.3198 0.9293 0.1846
vn 0.1305 0.9653 0.2260
vn 0.4880 0.2176 0.8453
vn 0.4986 -0.0147 0.8667
vn 0.0062 -0.3256 0.9455
vn 0.0068 -0.0232 0.9997
vn 0.0000 0.2174 0.9761
vn -0.5013 -0.0147 0.8652
vn -0.4683 0.3507 0.8110
vn 0.0000 0.3473 0.9377
vn 0.0000 0.4688 0.8833
vn -0.0000 0.5725 0.8199
vn 0.3580 0.6982 0.6200
vn -0.3580 0.6982 0.6200
vn -0.0000 0.6944 0.7195
vn 0.2840 0.8229 0.4920
vn -0.2840 0.8229 0.4920
vn 0.0000 0.8228 0.5683
vn -0.0000 0.9293 0.3692
usemtl EggBuffalord.png
s 1
f 1/1/1 2/2/2 3/3/3
f 3/3/3 4/4/4 1/1/1
f 3/3/3 5/5/5 4/4/4
f 4/4/4 5/5/5 6/6/6
f 6/6/6 7/7/7 4/4/4
f 5/5/5 8/8/8 6/6/6
f 7/7/7 6/6/6 9/9/9
f 6/6/6 8/8/8 10/10/10
f 6/6/6 10/10/10 9/9/9
f 8/8/8 11/11/11 10/10/10
f 11/11/11 12/12/12 10/10/10
f 12/12/12 9/9/9 10/10/10
f 8/8/8 13/13/13 11/11/11
f 13/13/13 8/8/8 14/14/5
f 14/14/5 15/15/14 13/13/13
f 16/16/15 15/15/14 14/14/5
f 16/16/15 14/14/5 17/17/3
f 17/17/3 18/18/2 16/16/15
f 15/15/14 19/19/16 13/13/13
f 13/13/13 20/20/17 11/11/11
f 13/13/13 19/19/16 20/20/17
f 20/20/17 19/19/16 21/21/18
f 21/21/18 19/19/16 22/22/14
f 22/22/14 23/23/19 21/21/18
f 23/23/19 22/22/14 24/24/15
f 23/23/19 24/24/15 25/25/20
f 24/24/15 26/26/2 25/25/20
f 23/23/19 27/27/21 21/21/18
f 21/21/18 27/27/21 28/28/22
f 21/21/18 28/28/22 29/29/23
f 20/20/17 21/21/18 29/29/23
f 30/30/24 29/29/23 28/28/22
f 29/29/23 31/31/25 20/20/17
f 31/31/25 11/11/11 20/20/17
f 29/29/23 32/32/26 31/31/25
f 30/30/24 32/32/26 29/29/23
f 33/33/27 32/32/26 30/30/24
f 31/31/25 34/34/28 11/11/11
f 11/11/11 34/34/28 12/12/12
f 33/33/27 35/35/29 32/32/26
f 36/36/30 35/35/29 33/33/27
f 37/37/31 34/34/28 31/31/25
f 37/37/31 32/32/26 35/35/29
f 37/37/31 31/31/25 32/32/26
f 36/36/30 38/38/32 35/35/29
f 39/39/33 38/38/32 36/36/30
f 35/35/29 38/38/32 40/40/34
f 35/35/29 40/40/34 37/37/31
f 41/41/35 40/40/34 38/38/32
f 41/41/35 38/38/32 42/42/36
f 39/39/33 42/42/36 38/38/32
f 43/43/37 42/42/36 39/39/33
f 42/42/36 44/44/38 41/41/35
f 42/42/36 45/45/39 44/44/38
f 43/43/37 45/45/39 42/42/36
f 46/46/40 45/45/39 43/43/37
f 47/47/41 44/44/38 45/45/39
f 37/37/31 48/48/42 34/34/28
f 49/49/34 48/48/42 37/37/31
f 46/46/40 50/50/43 45/45/39
f 47/47/41 45/45/39 50/50/43
f 47/47/41 50/50/43 51/51/44
f 46/46/40 51/51/44 50/50/43
f 46/46/40 52/52/45 51/51/44
f 53/53/46 51/51/44 52/52/45
f 47/47/41 51/51/44 53/53/46
f 53/53/46 52/52/45 54/54/47
f 55/55/48 34/34/28 48/48/42
f 55/55/48 12/12/12 34/34/28
f 49/49/34 56/56/49 48/48/42
f 57/57/35 56/56/49 49/49/34
f 48/48/42 56/56/49 58/58/50
f 48/48/42 58/58/50 55/55/48
f 59/59/51 58/58/50 56/56/49
f 57/57/35 60/60/52 56/56/49
f 59/59/51 56/56/49 60/60/52
f 61/61/38 60/60/52 57/57/35
f 60/60/52 62/62/53 59/59/51
f 60/60/52 63/63/54 62/62/53
f 61/61/38 63/63/54 60/60/52
f 64/64/41 63/63/54 61/61/38
f 65/65/55 62/62/53 63/63/54
f 55/55/48 66/66/56 12/12/12
f 12/12/12 66/66/56 9/9/9
f 65/65/55 63/63/54 67/67/57
f 64/64/41 67/67/57 63/63/54
f 65/65/55 67/67/57 68/68/58
f 64/64/41 68/68/58 67/67/57
f 64/64/41 69/69/46 68/68/58
f 65/65/55 68/68/58 70/70/59
f 70/70/59 68/68/58 69/69/46
f 70/70/59 69/69/46 71/71/47
f 55/55/48 72/72/60 66/66/56
f 73/73/50 72/72/60 55/55/48
f 73/73/50 74/74/61 72/72/60
f 75/75/51 74/74/61 73/73/50
f 75/75/51 76/76/62 74/74/61
f 77/77/63 76/76/62 75/75/51
f 77/77/63 78/78/64 76/76/62
f 79/79/65 78/78/64 77/77/63
f 72/72/60 74/74/61 80/80/66
f 81/81/67 74/74/61 76/76/62
f 81/81/67 80/80/66 74/74/61
f 76/76/62 78/78/64 82/82/68
f 76/76/62 82/82/68 81/81/67
f 72/72/60 80/80/66 83/83/69
f 83/83/69 66/66/56 72/72/60
f 84/84/70 82/82/68 78/78/64
f 84/84/70 78/78/64 85/85/71
f 79/79/65 85/85/71 78/78/64
f 84/84/70 85/85/71 86/86/72
f 79/79/65 86/86/72 85/85/71
f 79/79/65 87/87/59 86/86/72
f 84/84/70 86/86/72 88/88/73
f 88/88/73 86/86/72 87/87/59
f 88/88/73 87/87/59 89/89/47
f 9/9/9 66/66/56 90/90/74
f 83/83/69 90/90/74 66/66/56
f 7/7/7 9/9/9 91/91/75
f 9/9/9 90/90/74 91/91/75
f 92/92/76 7/7/7 91/91/75
f 93/93/77 7/7/7 92/92/76
f 92/92/76 91/91/75 94/94/78
f 90/90/74 94/94/78 91/91/75
f 90/90/74 95/95/79 94/94/78
f 83/83/69 95/95/79 90/90/74
f 96/96/80 93/93/77 92/92/76
f 97/97/81 93/93/77 96/96/80
f 97/97/81 96/96/80 98/98/82
f 98/98/82 99/99/2 97/97/81
f 100/100/83 92/92/76 94/94/78
f 92/92/76 100/100/83 96/96/80
f 83/83/69 101/101/84 95/95/79
f 102/102/66 101/101/84 83/83/69
f 102/102/66 103/103/85 101/101/84
f 104/104/67 103/103/85 102/102/66
f 104/104/67 105/105/86 103/103/85
f 106/106/87 105/105/86 104/104/67
f 106/106/87 107/107/88 105/105/86
f 108/108/89 107/107/88 106/106/87
f 101/101/84 103/103/85 109/109/90
f 110/110/91 103/103/85 105/105/86
f 110/110/91 109/109/90 103/103/85
f 105/105/86 111/111/92 110/110/91
f 105/105/86 107/107/88 111/111/92
f 112/112/93 95/95/79 101/101/84
f 101/101/84 109/109/90 112/112/93
f 113/113/94 111/111/92 107/107/88
f 113/113/94 107/107/88 114/114/95
f 108/108/89 114/114/95 107/107/88
f 108/108/89 115/115/96 114/114/95
f 113/113/94 114/114/95 115/115/96
f 108/108/89 116/116/73 115/115/96
f 117/117/97 115/115/96 116/116/73
f 113/113/94 115/115/96 117/117/97
f 117/117/97 116/116/73 118/118/47
f 94/94/78 95/95/79 119/119/98
f 112/112/93 119/119/98 95/95/79
f 94/94/78 119/119/98 120/120/99
f 100/100/83 94/94/78 120/120/99
f 121/121/100 100/100/83 120/120/99
f 122/122/101 100/100/83 121/121/100
f 121/121/100 120/120/99 123/123/102
f 119/119/98 123/123/102 120/120/99
f 119/119/98 124/124/103 123/123/102
f 112/112/93 124/124/103 119/119/98
f 125/125/104 122/122/101 121/121/100
f 126/126/82 122/122/101 125/125/104
f 126/126/82 125/125/104 127/127/105
f 127/127/105 128/128/2 126/126/82
f 129/129/106 121/121/100 123/123/102
f 121/121/100 129/129/106 125/125/104
f 112/112/93 130/130/107 124/124/103
f 131/131/90 130/130/107 112/112/93
f 131/131/90 132/132/108 130/130/107
f 133/133/91 132/132/108 131/131/90
f 133/133/91 134/134/109 132/132/108
f 135/135/92 134/134/109 133/133/91
f 135/135/92 136/136/110 134/134/109
f 137/137/94 136/136/110 135/135/92
f 130/130/107 132/132/108 138/138/111
f 139/139/112 132/132/108 134/134/109
f 139/139/112 138/138/111 132/132/108
f 134/134/109 136/136/110 140/140/113
f 134/134/109 140/140/113 139/139/112
f 141/141/114 124/124/103 130/130/107
f 130/130/107 138/138/111 141/141/114
f 142/142/115 140/140/113 136/136/110
f 137/137/94 143/143/116 136/136/110
f 142/142/115 136/136/110 143/143/116
f 142/142/115 143/143/116 144/144/117
f 137/137/94 144/144/117 143/143/116
f 137/137/94 145/145/97 144/144/117
f 146/146/118 144/144/117 145/145/97
f 142/142/115 144/144/117 146/146/118
f 146/146/118 145/145/97 147/147/47
f 123/123/102 124/124/103 148/148/119
f 141/141/114 148/148/119 124/124/103
f 129/129/106 123/123/102 149/149/120
f 123/123/102 148/148/119 149/149/120
f 150/150/121 129/129/106 149/149/120
f 151/151/104 129/129/106 150/150/121
f 148/148/119 152/152/122 149/149/120
f 150/150/121 149/149/120 152/152/122
f 148/148/119 153/153/123 152/152/122
f 141/141/114 153/153/123 148/148/119
f 154/154/19 151/151/104 150/150/121
f 155/155/105 151/151/104 154/154/19
f 155/155/105 154/154/19 156/156/20
f 156/156/20 157/157/2 155/155/105
f 150/150/121 158/158/21 154/154/19
f 158/158/21 150/150/121 152/152/122
f 158/158/21 152/152/122 159/159/124
f 152/152/122 153/153/123 160/160/24
f 152/152/122 160/160/24 159/159/124
f 161/161/125 160/160/24 153/153/123
f 161/161/125 153/153/123 162/162/126
f 141/141/114 162/162/126 153/153/123
f 163/163/111 162/162/126 141/141/114
f 162/162/126 164/164/30 161/161/125
f 162/162/126 165/165/127 164/164/30
f 163/163/111 165/165/127 162/162/126
f 166/166/112 165/165/127 163/163/111
f 167/167/33 164/164/30 165/165/127
f 167/167/33 165/165/127 168/168/128
f 166/166/112 168/168/128 165/165/127
f 169/169/129 168/168/128 166/166/112
f 168/168/128 170/170/130 167/167/33
f 168/168/128 171/171/131 170/170/130
f 169/169/129 171/171/131 168/168/128
f 172/172/132 171/171/131 169/169/129
f 173/173/133 170/170/130 171/171/131
f 172/172/132 174/174/134 171/171/131
f 173/173/133 171/171/131 174/174/134
f 173/173/133 174/174/134 175/175/135
f 172/172/132 175/175/135 174/174/134
f 172/172/132 176/176/118 175/175/135
f 177/177/45 175/175/135 176/176/118
f 173/173/133 175/175/135 177/177/45
f 177/177/45 176/176/118 178/178/47
