# Blender 4.2.1 LTS
# www.blender.org
mtllib casilla19.mtl
o Cube
v 0.410378 0.100000 -0.653566
v 0.410378 -0.100000 -0.653566
v 0.410378 0.100000 0.653566
v 0.410378 -0.100000 0.653566
v -0.410378 0.100000 -0.653566
v -0.410378 -0.100000 -0.653566
v -0.410378 0.100000 0.653566
v -0.410378 -0.100000 0.653566
vn -0.0000 1.0000 -0.0000
vn -0.0000 -0.0000 1.0000
vn -1.0000 -0.0000 -0.0000
vn -0.0000 -1.0000 -0.0000
vn 1.0000 -0.0000 -0.0000
vn -0.0000 -0.0000 -1.0000
vt 0.706622 0.870204
vt 0.784031 0.870325
vt 0.784022 0.999754
vt 0.706378 1.000063
vt 0.359881 0.407302
vt 0.609881 0.407302
vt 0.609881 0.657302
vt 0.359881 0.657302
vt 0.359881 0.274663
vt 0.609881 0.274663
vt 0.609881 0.524663
vt 0.359881 0.524663
vt 0.205635 0.411806
vt 0.455635 0.411806
vt 0.455635 0.661806
vt 0.205635 0.661806
vt 0.375000 0.500000
vt 0.625000 0.500000
vt 0.625000 0.750000
vt 0.375000 0.750000
vt 0.375000 0.250000
vt 0.625000 0.250000
s 0
usemtl Material.002
f 1/1/1 5/2/1 7/3/1 3/4/1
f 4/5/2 3/6/2 7/7/2 8/8/2
f 8/9/3 7/10/3 5/11/3 6/12/3
f 6/13/4 2/14/4 4/15/4 8/16/4
f 2/17/5 1/18/5 3/19/5 4/20/5
f 6/21/6 5/22/6 1/18/6 2/17/6
