# 3ds Max Wavefront OBJ Exporter v0.99 - (c)2007 guruware
# File Created: 21.09.2024 14:41:43

mtllib dado_animales_opt.mtl

#
# object Box002
#

v  5.0000 -5.0000 -5.0000
v  5.0000 -5.0000 5.0000
v  -5.0000 -5.0000 5.0000
v  -5.0000 -5.0000 -5.0000
v  5.0000 5.0000 -5.0000
v  -5.0000 5.0000 -5.0000
v  -5.0000 5.0000 5.0000
v  5.0000 5.0000 5.0000
# 8 vertices

vn 0.0000 -1.0000 -0.0000
vn 0.0000 1.0000 -0.0000
vn 0.0000 0.0000 1.0000
vn 1.0000 0.0000 -0.0000
vn 0.0000 0.0000 -1.0000
vn -1.0000 0.0000 -0.0000
# 6 vertex normals

vt 0.5049 0.3268 0.0000
vt 0.5061 0.0113 0.0000
vt 0.7458 0.0084 0.0000
vt 0.7417 0.3279 0.0000
vt 0.5050 0.6711 0.0000
vt 0.7415 0.6692 0.0000
vt 0.7407 0.9958 0.0000
vt 0.5064 0.9957 0.0000
vt 0.0067 0.6610 0.0000
vt 0.2498 0.6628 0.0000
vt 0.2457 0.3451 0.0000
vt 0.0090 0.3420 0.0000
vt 0.4974 0.6631 0.0000
vt 0.2549 0.6631 0.0000
vt 0.2584 0.3390 0.0000
vt 0.4970 0.3403 0.0000
vt 0.7417 0.6632 0.0000
vt 0.5050 0.6620 0.0000
vt 0.5073 0.3422 0.0000
vt 0.7446 0.3421 0.0000
vt 0.9939 0.6635 0.0000
vt 0.7533 0.6643 0.0000
vt 0.7572 0.3432 0.0000
vt 0.9952 0.3435 0.0000
# 24 texture coords

o Box002
g Box002
usemtl dado_animales_opt_DadoP6_01___Default
s 2
f 1/1/1 2/2/1 3/3/1 
f 3/3/1 4/4/1 1/1/1 
s 4
f 5/5/2 6/6/2 7/7/2 
f 7/7/2 8/8/2 5/5/2 
s 8
f 8/9/3 7/10/3 3/11/3 
f 3/11/3 2/12/3 8/9/3 
s 16
f 5/13/4 8/14/4 2/15/4 
f 2/15/4 1/16/4 5/13/4 
s 32
f 6/17/5 5/18/5 1/19/5 
f 1/19/5 4/20/5 6/17/5 
s 64
f 7/21/6 6/22/6 4/23/6 
f 4/23/6 3/24/6 7/21/6 
# 12 faces

