# 3ds Max Wavefront OBJ Exporter v0.99 - (c)2007 guruware
# File Created: 02.11.2024 19:25:39

mtllib PiernaD.mtl

#
# object PiernaD
#

v  -0.0565 -0.0649 -0.0034
v  -0.0304 0.0491 -0.0704
v  -0.0304 -0.0685 -0.0555
v  -0.0561 0.0650 -0.0029
v  0.0153 0.0227 -0.0903
v  0.0270 -0.0676 -0.0635
v  0.0569 -0.0056 -0.0699
v  0.0025 0.0478 0.0600
v  -0.0001 -0.0661 0.0607
v  0.0617 0.0024 0.0498
v  0.0566 -0.0659 0.0380
v  0.0791 -0.0165 -0.0202
v  0.0729 -0.0674 -0.0216
v  0.0251 -0.2002 -0.0539
v  -0.0288 -0.1996 -0.0389
v  0.0635 -0.1867 -0.0178
v  -0.0439 -0.1857 -0.0000
v  -0.0009 -0.1778 0.0560
v  0.0502 -0.1786 0.0348
v  0.0017 -0.2150 0.0504
v  0.0478 -0.2155 0.0380
v  -0.0439 -0.2105 0.0030
v  0.0618 -0.2113 -0.0143
v  0.0017 -0.2956 0.0463
v  0.0474 -0.2962 0.0314
v  -0.0439 -0.2969 0.0083
v  0.0584 -0.2977 -0.0098
v  -0.0294 -0.2984 -0.0361
v  0.0240 -0.2992 -0.0544
v  -0.0445 -0.4499 -0.0781
v  0.0259 -0.4503 -0.0891
v  -0.0011 -0.4455 0.0493
v  0.0503 -0.4463 0.0291
v  -0.0631 -0.4471 0.0026
v  0.0687 -0.4483 -0.0270
v  -0.0582 -0.5256 -0.0958
v  0.0325 -0.5262 -0.1105
v  0.0919 -0.5235 -0.0278
v  -0.0836 -0.5219 0.0116
v  -0.0028 -0.5200 0.0674
v  0.0679 -0.5209 0.0470
v  -0.0630 -0.6173 -0.1030
v  0.0378 -0.6178 -0.1126
v  -0.0005 -0.6109 0.0809
v  0.0794 -0.6119 0.0580
v  -0.0988 -0.6131 0.0180
v  0.1000 -0.6150 -0.0265
v  0.0384 -0.7104 -0.0991
v  -0.0635 -0.7097 -0.0853
v  -0.0011 -0.6946 0.0973
v  0.0802 -0.7024 0.0585
v  -0.0985 -0.7049 0.0168
v  0.1005 -0.7076 -0.0139
v  -0.0618 -0.7680 -0.0822
v  0.0369 -0.7720 -0.0989
v  0.0767 -0.7217 0.0675
v  -0.0006 -0.7131 0.1019
v  -0.1027 -0.7384 0.0171
v  0.1004 -0.7513 -0.0002
v  0.0353 -0.8193 -0.0730
v  -0.0574 -0.8185 -0.0605
v  0.0919 -0.8147 0.0214
v  -0.0888 -0.8148 0.0059
v  -0.0974 -0.8115 0.0881
v  -0.0990 -0.7384 0.0757
v  -0.0598 -0.7452 0.1629
v  -0.0581 -0.8073 0.1782
v  0.0129 -0.7481 0.1848
v  0.0173 -0.8059 0.2039
v  0.0751 -0.8075 0.1794
v  0.0779 -0.7485 0.1606
v  0.0992 -0.8118 0.0928
v  0.1027 -0.7466 0.0746
# 73 vertices

vn -0.9903 -0.0487 0.1300
vn -0.7803 -0.0556 -0.6229
vn -0.6144 -0.1322 -0.7778
vn -0.9803 0.0022 0.1975
vn -0.1904 -0.1942 -0.9623
vn 0.2788 -0.2197 -0.9349
vn 0.5385 -0.2568 -0.8025
vn -0.4726 0.0060 0.8813
vn -0.2556 -0.0442 0.9657
vn 0.5559 -0.0914 0.8261
vn 0.7496 -0.1171 0.6515
vn 0.9907 -0.1169 -0.0702
vn 0.9592 -0.1535 -0.2374
vn 0.2695 -0.0579 -0.9613
vn -0.6877 -0.0532 -0.7240
vn 0.9558 -0.0860 -0.2811
vn -0.9869 -0.0493 0.1537
vn -0.2543 -0.1032 0.9616
vn 0.7479 -0.0453 0.6622
vn -0.2465 -0.0528 0.9677
vn 0.6937 -0.0157 0.7201
vn -0.9753 0.0263 0.2192
vn 0.9715 -0.0588 -0.2295
vn -0.1931 -0.0201 0.9810
vn 0.7310 -0.0230 0.6821
vn -0.9559 0.0424 0.2907
vn 0.9848 0.0130 -0.1731
vn -0.7265 0.1099 -0.6784
vn 0.3093 0.1087 -0.9447
vn -0.6522 0.2624 -0.7112
vn 0.3719 0.2533 -0.8930
vn -0.1451 0.1346 0.9802
vn 0.7162 0.1604 0.6792
vn -0.9256 0.2047 0.3185
vn 0.9646 0.2031 -0.1680
vn -0.6587 0.1920 -0.7275
vn 0.3752 0.1668 -0.9118
vn 0.9674 0.1911 -0.1659
vn -0.9093 0.2214 0.3525
vn -0.1604 0.2016 0.9663
vn 0.6786 0.2401 0.6942
vn -0.6286 -0.0293 -0.7772
vn 0.4101 -0.0418 -0.9111
vn -0.1658 0.1511 0.9745
vn 0.7262 0.1091 0.6788
vn -0.9335 0.0681 0.3521
vn 0.9779 0.0286 -0.2072
vn 0.4158 -0.0936 -0.9046
vn -0.6475 -0.0827 -0.7576
vn -0.1520 0.1926 0.9694
vn 0.7951 0.0797 0.6012
vn -0.9562 0.0811 0.2812
vn 0.9782 -0.0514 -0.2010
vn -0.5909 -0.2024 -0.7810
vn 0.3768 -0.2374 -0.8954
vn 0.6578 0.4636 0.5936
vn -0.0597 0.7626 0.6441
vn -0.9907 0.1360 -0.0062
vn 0.9731 -0.0676 -0.2203
vn 0.3211 -0.7762 -0.5426
vn -0.4291 -0.7608 -0.4868
vn 0.6633 -0.7337 -0.1469
vn -0.6679 -0.7295 -0.1476
vn -0.7328 -0.6546 0.1857
vn -0.7896 0.5841 0.1879
vn -0.5556 0.5657 0.6093
vn -0.5255 -0.5400 0.6575
vn 0.0296 0.6281 0.7775
vn 0.0407 -0.4824 0.8749
vn 0.5823 -0.5288 0.6175
vn 0.6398 0.5681 0.5177
vn 0.7306 -0.6730 0.1151
vn 0.8908 0.4321 0.1404
# 73 vertex normals

vt 0.6505 0.0751 0.0000
vt 0.6177 0.0176 0.0000
vt 0.6220 0.0769 0.0000
vt 0.6528 0.0103 0.0000
vt 0.5943 0.0306 0.0000
vt 0.5931 0.0781 0.0000
vt 0.5751 0.0480 0.0000
vt 0.6948 0.0199 0.0000
vt 0.6927 0.0764 0.0000
vt 0.7237 0.0432 0.0000
vt 0.7228 0.0778 0.0000
vt 0.7581 0.0578 0.0000
vt 0.7539 0.0829 0.0000
vt 0.5632 0.0842 0.0000
vt 0.5521 0.0625 0.0000
vt 0.3563 0.9329 0.0000
vt 0.4222 0.9602 0.0000
vt 0.4225 0.9324 0.0000
vt 0.3556 0.9622 0.0000
vt 0.4177 0.9867 0.0000
vt 0.3581 0.9938 0.0000
vt 0.4177 0.9106 0.0000
vt 0.3571 0.9041 0.0000
vt 0.4204 0.8748 0.0000
vt 0.3657 0.8624 0.0000
vt 0.4271 0.8478 0.0000
vt 0.3726 0.8324 0.0000
vt 0.3822 0.8027 0.0000
vt 0.4388 0.8228 0.0000
vt 0.7160 0.1341 0.0000
vt 0.6881 0.1513 0.0000
vt 0.7125 0.1522 0.0000
vt 0.6886 0.1322 0.0000
vt 0.6530 0.1364 0.0000
vt 0.6544 0.1498 0.0000
vt 0.7397 0.1519 0.0000
vt 0.7426 0.1409 0.0000
vt 0.6315 0.1437 0.0000
vt 0.6878 0.1921 0.0000
vt 0.7128 0.1923 0.0000
vt 0.6565 0.1940 0.0000
vt 0.7345 0.1933 0.0000
vt 0.6310 0.1952 0.0000
vt 0.6009 0.1942 0.0000
vt 0.6030 0.1443 0.0000
vt 0.5760 0.1492 0.0000
vt 0.5759 0.1398 0.0000
vt 0.5728 0.1884 0.0000
vt 0.6196 0.2686 0.0000
vt 0.5893 0.2659 0.0000
vt 0.6928 0.2614 0.0000
vt 0.7194 0.2613 0.0000
vt 0.6579 0.2643 0.0000
vt 0.7486 0.2612 0.0000
vt 0.5548 0.2539 0.0000
vt 0.6133 0.3255 0.0000
vt 0.5795 0.2801 0.0000
vt 0.5697 0.3181 0.0000
vt 0.6194 0.2870 0.0000
vt 0.5215 0.3034 0.0000
vt 0.5428 0.2649 0.0000
vt 0.6665 0.3293 0.0000
vt 0.6653 0.2899 0.0000
vt 0.7133 0.3250 0.0000
vt 0.7065 0.2863 0.0000
vt 0.7349 0.2801 0.0000
vt 0.7476 0.3176 0.0000
vt 0.7647 0.2714 0.0000
vt 0.7831 0.3068 0.0000
vt 0.6068 0.3692 0.0000
vt 0.5591 0.3617 0.0000
vt 0.7225 0.3730 0.0000
vt 0.7611 0.3619 0.0000
vt 0.6667 0.3758 0.0000
vt 0.8010 0.3455 0.0000
vt 0.5073 0.3525 0.0000
vt 0.5528 0.4072 0.0000
vt 0.6062 0.4138 0.0000
vt 0.7300 0.4191 0.0000
vt 0.7757 0.4053 0.0000
vt 0.6630 0.4215 0.0000
vt 0.8106 0.3879 0.0000
vt 0.4989 0.4029 0.0000
vt 0.6016 0.4404 0.0000
vt 0.5524 0.4368 0.0000
vt 0.7771 0.4173 0.0000
vt 0.7329 0.4337 0.0000
vt 0.6594 0.4383 0.0000
vt 0.8160 0.4029 0.0000
vt 0.4939 0.4280 0.0000
vt 0.5481 0.4624 0.0000
vt 0.5999 0.4669 0.0000
vt 0.4896 0.4633 0.0000
vt 0.6359 0.4732 0.0000
vt 0.6704 0.4903 0.0000
vt 0.6813 0.4542 0.0000
vt 0.7177 0.4804 0.0000
vt 0.7165 0.5115 0.0000
vt 0.7499 0.4796 0.0000
vt 0.7598 0.5095 0.0000
vt 0.7906 0.4935 0.0000
vt 0.7761 0.4671 0.0000
vt 0.8164 0.4557 0.0000
vt 0.7922 0.4291 0.0000
vt 0.8371 0.4278 0.0000
vt 0.2429 0.9775 0.0000
vt 0.2709 0.9253 0.0000
vt 0.2452 0.9400 0.0000
vt 0.2826 0.9974 0.0000
vt 0.3037 0.9193 0.0000
vt 0.3116 0.9980 0.0000
vt 0.3411 0.9323 0.0000
vt 0.3456 0.9857 0.0000
vt 0.3537 0.9617 0.0000
# 114 texture coords

o PiernaD
g PiernaD
usemtl PiernaD_Hiccup_HiccupTeen
s 1
f 1/1/1 2/2/2 3/3/3 
f 4/4/4 2/2/2 1/1/1 
f 2/2/2 5/5/5 3/3/3 
f 3/3/3 5/5/5 6/6/6 
f 5/5/5 7/7/7 6/6/6 
f 4/4/4 1/1/1 8/8/8 
f 8/8/8 1/1/1 9/9/9 
f 8/8/8 9/9/9 10/10/10 
f 10/10/10 9/9/9 11/11/11 
f 10/10/10 11/11/11 12/12/12 
f 12/12/12 11/11/11 13/13/13 
f 7/7/7 13/14/13 6/6/6 
f 12/15/12 13/14/13 7/7/7 
f 3/16/3 14/17/14 15/18/15 
f 6/19/6 14/17/14 3/16/3 
f 6/19/6 16/20/16 14/17/14 
f 13/21/13 16/20/16 6/19/6 
f 17/22/17 3/16/3 15/18/15 
f 1/23/1 3/16/3 17/22/17 
f 18/24/18 1/23/1 17/22/17 
f 9/25/9 1/23/1 18/24/18 
f 19/26/19 9/25/9 18/24/18 
f 11/27/11 9/25/9 19/26/19 
f 11/27/11 19/26/19 13/28/13 
f 13/28/13 19/26/19 16/29/16 
f 19/30/19 20/31/20 21/32/21 
f 18/33/18 20/31/20 19/30/19 
f 18/33/18 17/34/17 20/31/20 
f 20/31/20 17/34/17 22/35/22 
f 23/36/23 19/30/19 21/32/21 
f 16/37/16 19/30/19 23/36/23 
f 17/34/17 15/38/15 22/35/22 
f 20/31/20 24/39/24 21/32/21 
f 21/32/21 24/39/24 25/40/25 
f 20/31/20 26/41/26 24/39/24 
f 22/35/22 26/41/26 20/31/20 
f 27/42/27 21/32/21 25/40/25 
f 23/36/23 21/32/21 27/42/27 
f 22/35/22 28/43/28 26/41/26 
f 15/38/15 28/43/28 22/35/22 
f 15/38/15 29/44/29 28/43/28 
f 14/45/14 29/44/29 15/38/15 
f 14/45/14 23/46/23 29/44/29 
f 14/45/14 16/47/16 23/46/23 
f 29/44/29 23/46/23 27/48/27 
f 28/43/28 29/44/29 30/49/30 
f 30/49/30 29/44/29 31/50/31 
f 24/39/24 32/51/32 25/40/25 
f 24/39/24 26/41/26 32/51/32 
f 25/40/25 32/51/32 33/52/33 
f 25/40/25 33/52/33 27/42/27 
f 32/51/32 26/41/26 34/53/34 
f 34/53/34 28/43/28 30/49/30 
f 26/41/26 28/43/28 34/53/34 
f 27/42/27 33/52/33 35/54/35 
f 29/44/29 35/55/35 31/50/31 
f 27/48/27 35/55/35 29/44/29 
f 36/56/36 31/57/31 37/58/37 
f 30/59/30 31/57/31 36/56/36 
f 37/58/37 31/57/31 38/60/38 
f 38/60/38 31/57/31 35/61/35 
f 39/62/39 30/59/30 36/56/36 
f 34/63/34 30/59/30 39/62/39 
f 40/64/40 34/63/34 39/62/39 
f 32/65/32 34/63/34 40/64/40 
f 32/65/32 40/64/40 33/66/33 
f 33/66/33 40/64/40 41/67/41 
f 33/66/33 41/67/41 35/68/35 
f 35/68/35 41/67/41 38/69/38 
f 36/56/36 37/58/37 42/70/42 
f 42/70/42 37/58/37 43/71/43 
f 37/58/37 38/60/38 43/71/43 
f 44/72/44 41/67/41 40/64/40 
f 40/64/40 39/62/39 44/72/44 
f 45/73/45 41/67/41 44/72/44 
f 41/67/41 45/73/45 38/69/38 
f 44/72/44 39/62/39 46/74/46 
f 38/69/38 45/73/45 47/75/47 
f 43/71/43 38/60/38 47/76/47 
f 46/74/46 36/56/36 42/70/42 
f 39/62/39 36/56/36 46/74/46 
f 43/71/43 48/77/48 42/70/42 
f 43/71/43 47/76/47 48/77/48 
f 42/70/42 48/77/48 49/78/49 
f 42/70/42 49/78/49 46/74/46 
f 50/79/50 45/73/45 44/72/44 
f 51/80/51 45/73/45 50/79/50 
f 44/72/44 52/81/52 50/79/50 
f 46/74/46 52/81/52 44/72/44 
f 46/74/46 49/78/49 52/81/52 
f 53/82/53 45/73/45 51/80/51 
f 47/75/47 45/73/45 53/82/53 
f 48/77/48 47/76/47 53/83/53 
f 49/78/49 48/77/48 54/84/54 
f 54/84/54 48/77/48 55/85/55 
f 51/80/51 50/79/50 56/86/56 
f 56/86/56 50/79/50 57/87/57 
f 50/79/50 52/81/52 57/87/57 
f 57/87/57 52/81/52 58/88/58 
f 58/88/58 49/78/49 54/84/54 
f 52/81/52 49/78/49 58/88/58 
f 59/89/59 51/80/51 56/86/56 
f 53/82/53 51/80/51 59/89/59 
f 48/77/48 59/90/59 55/85/55 
f 53/83/53 59/90/59 48/77/48 
f 60/91/60 54/84/54 55/85/55 
f 55/85/55 59/90/59 60/91/60 
f 61/92/61 54/84/54 60/91/60 
f 60/91/60 59/90/59 62/93/62 
f 54/84/54 63/94/63 58/88/58 
f 61/92/61 63/94/63 54/84/54 
f 64/95/64 58/88/58 63/94/63 
f 65/96/65 58/88/58 64/95/64 
f 65/96/65 57/87/57 58/88/58 
f 64/95/64 66/97/66 65/96/65 
f 66/97/66 57/87/57 65/96/65 
f 67/98/67 66/97/66 64/95/64 
f 67/98/67 68/99/68 66/97/66 
f 68/99/68 57/87/57 66/97/66 
f 69/100/69 68/99/68 67/98/67 
f 70/101/70 68/99/68 69/100/69 
f 71/102/71 68/99/68 70/101/70 
f 71/102/71 57/87/57 68/99/68 
f 72/103/72 71/102/71 70/101/70 
f 73/104/73 71/102/71 72/103/72 
f 73/104/73 57/87/57 71/102/71 
f 72/103/72 62/105/62 73/104/73 
f 73/104/73 62/105/62 59/89/59 
f 56/86/56 73/104/73 59/89/59 
f 57/87/57 73/104/73 56/86/56 
f 60/106/60 63/107/63 61/108/61 
f 62/109/62 63/107/63 60/106/60 
f 62/109/62 64/110/64 63/107/63 
f 72/111/72 64/110/64 62/109/62 
f 72/111/72 67/112/67 64/110/64 
f 70/113/70 67/112/67 72/111/72 
f 67/112/67 70/113/70 69/114/69 
# 137 faces

