# 3ds Max Wavefront OBJ Exporter v0.99 - (c)2007 guruware
# File Created: 30.10.2024 15:35:50

mtllib PiernaI.mtl

#
# object PiernaI
#

v  0.0313 0.0796 -0.0040
v  0.0575 -0.0407 -0.0586
v  0.0314 -0.0001 -0.0916
v  0.0571 0.0336 0.0478
v  -0.0143 0.0808 -0.0371
v  -0.0261 0.0069 -0.0955
v  -0.0559 0.0478 -0.0484
v  -0.0015 -0.0277 0.0700
v  0.0010 -0.0937 -0.0228
v  -0.0607 -0.0455 0.0270
v  -0.0557 -0.0751 -0.0357
v  -0.0781 0.0009 -0.0287
v  -0.0719 -0.0272 -0.0712
v  -0.0241 -0.0772 -0.1984
v  0.0298 -0.0891 -0.1892
v  -0.0492 -0.1374 -0.1297
v  0.0019 -0.1542 -0.1169
v  0.0448 -0.1130 -0.1556
v  -0.0625 -0.0989 -0.1665
v  -0.0007 -0.1711 -0.1505
v  -0.0469 -0.1612 -0.1581
v  0.0448 -0.1297 -0.1741
v  -0.0609 -0.1159 -0.1848
v  -0.0231 -0.1337 -0.2797
v  0.0304 -0.1483 -0.2685
v  -0.0007 -0.2140 -0.2188
v  -0.0465 -0.2022 -0.2279
v  0.0448 -0.1837 -0.2418
v  -0.0575 -0.1694 -0.2528
v  0.0410 -0.1942 -0.4074
v  -0.0244 -0.1855 -0.4142
v  0.0011 -0.2958 -0.3306
v  -0.0499 -0.2799 -0.3428
v  0.0585 -0.2586 -0.3587
v  -0.0672 -0.2351 -0.3768
v  -0.0266 -0.2359 -0.4845
v  0.0459 -0.2539 -0.4708
v  -0.0741 -0.2848 -0.4476
v  0.0661 -0.3079 -0.4299
v  0.0016 -0.3447 -0.4021
v  -0.0549 -0.3289 -0.4142
v  0.0346 -0.3124 -0.5292
v  -0.0252 -0.2987 -0.5397
v  -0.0025 -0.3915 -0.4694
v  -0.0498 -0.3772 -0.4803
v  0.0558 -0.3582 -0.4945
v  -0.0621 -0.3373 -0.5106
v  0.0237 -0.4655 -0.6775
v  0.0237 -0.5154 -0.6398
v  0.0204 -0.5028 -0.6241
v  0.0170 -0.4643 -0.6232
v  0.0170 -0.4292 -0.6498
v  0.0352 -0.4292 -0.6498
v  0.0423 -0.4655 -0.6775
v  0.0060 -0.4235 -0.5989
v  0.0060 -0.3944 -0.6208
v  0.0040 -0.3783 -0.5739
v  0.0040 -0.3966 -0.5601
v  0.0040 -0.3487 -0.5575
v  0.0040 -0.3920 -0.5248
v  0.0040 -0.3290 -0.5154
v  0.0040 -0.3615 -0.4909
v  0.0295 -0.3487 -0.5575
v  0.0311 -0.3290 -0.5154
v  0.0226 -0.3783 -0.5739
v  0.0226 -0.3966 -0.5601
v  0.0295 -0.3920 -0.5248
v  0.0311 -0.3615 -0.4909
v  0.0218 -0.4235 -0.5989
v  0.0218 -0.3944 -0.6208
v  0.0352 -0.4643 -0.6232
v  0.0388 -0.5028 -0.6241
v  0.0423 -0.5154 -0.6398
v  -0.0335 -0.3859 -0.6043
v  0.0010 -0.3579 -0.5804
v  0.0010 -0.3859 -0.6043
v  -0.0335 -0.3579 -0.5804
v  0.0010 -0.3487 -0.5397
v  0.0010 -0.4143 -0.5829
v  0.0010 -0.4025 -0.5467
v  -0.0335 -0.4143 -0.5829
v  0.0010 -0.3716 -0.5271
v  -0.0335 -0.3716 -0.5271
v  -0.0335 -0.3534 -0.4806
v  0.0010 -0.3534 -0.4806
v  0.0010 -0.3265 -0.5009
v  -0.0335 -0.3238 -0.4426
v  0.0010 -0.3238 -0.4426
v  0.0010 -0.2961 -0.4635
v  -0.0335 -0.4025 -0.5467
v  -0.0335 -0.3265 -0.5009
v  -0.0335 -0.2961 -0.4635
v  -0.0335 -0.3487 -0.5397
v  -0.0468 -0.4784 -0.6677
v  -0.0333 -0.4182 -0.6351
v  -0.0333 -0.4784 -0.6677
v  -0.0468 -0.4182 -0.6351
v  -0.0333 -0.3866 -0.5913
v  -0.0468 -0.3866 -0.5913
v  -0.0468 -0.4088 -0.5744
v  -0.0468 -0.3780 -0.5332
v  -0.0468 -0.3543 -0.5511
v  -0.0468 -0.4460 -0.6140
v  -0.0468 -0.4752 -0.6265
v  -0.0468 -0.5081 -0.6229
v  -0.0333 -0.5081 -0.6229
v  -0.0333 -0.4752 -0.6265
v  -0.0468 -0.5217 -0.6350
v  -0.0333 -0.5217 -0.6350
v  -0.0333 -0.3780 -0.5332
v  -0.0333 -0.3543 -0.5511
v  -0.0333 -0.4460 -0.6140
v  -0.0333 -0.4088 -0.5744
v  -0.0370 -0.5338 -0.6265
v  -0.0513 -0.5135 -0.6418
v  -0.0173 -0.5209 -0.6362
v  -0.0520 -0.5258 -0.6325
v  -0.0513 -0.5020 -0.6266
v  -0.0173 -0.5094 -0.6210
v  -0.0370 -0.5222 -0.6112
v  -0.0520 -0.5142 -0.6173
v  0.0262 -0.5162 -0.6397
v  0.0262 -0.5047 -0.6245
v  0.0176 -0.5312 -0.6284
v  -0.0033 -0.5381 -0.6232
v  0.0176 -0.5196 -0.6132
v  -0.0033 -0.5265 -0.6080
# 127 vertices

vn 0.7803 0.4775 -0.4038
vn 0.9903 -0.1344 0.0350
vn 0.6145 0.5602 -0.5555
vn 0.9803 -0.1604 0.1154
vn 0.1904 0.6754 -0.7124
vn -0.2788 0.6384 -0.7174
vn -0.5385 0.5088 -0.6717
vn 0.4726 -0.7175 0.5118
vn 0.2556 -0.8155 0.5193
vn -0.5559 -0.7284 0.4005
vn -0.7496 -0.6003 0.2790
vn -0.9907 -0.0098 -0.1360
vn -0.9592 0.1058 -0.2621
vn -0.2695 0.7530 -0.6003
vn 0.6876 0.5617 -0.4601
vn -0.7479 -0.5677 0.3439
vn 0.2543 -0.8460 0.4687
vn 0.9869 -0.1540 0.0481
vn -0.9558 0.1804 -0.2320
vn 0.2464 -0.8220 0.5134
vn -0.6938 -0.5979 0.4014
vn 0.9753 -0.1642 0.1476
vn -0.9715 0.1539 -0.1802
vn -0.3105 0.8390 -0.4469
vn 0.7317 0.6115 -0.3011
vn 0.1939 -0.8145 0.5468
vn -0.7307 -0.5708 0.3746
vn 0.9572 -0.2169 0.1914
vn -0.9849 0.1504 -0.0860
vn 0.6691 0.6605 -0.3406
vn -0.3703 0.8183 -0.4396
vn 0.1571 -0.8074 0.5687
vn -0.7310 -0.5476 0.4071
vn 0.9455 -0.2204 0.2398
vn -0.9813 0.1892 -0.0368
vn -0.3166 0.7011 -0.6389
vn 0.7273 0.4830 -0.4876
vn -0.9853 0.1148 -0.1264
vn 0.9540 -0.2560 0.1564
vn 0.1526 -0.8083 0.5687
vn -0.7277 -0.5624 0.3927
vn 0.6836 0.4540 -0.5715
vn -0.3223 0.6195 -0.7158
vn 0.1198 -0.8221 0.5567
vn -0.7425 -0.5668 0.3570
vn 0.9432 -0.3178 0.0967
vn -0.9754 0.0652 -0.2106
vn -0.5390 -0.0209 -0.8420
vn -0.5228 -0.8431 -0.1259
vn -0.6509 -0.3893 0.6517
vn -0.7848 -0.2932 0.5460
vn -0.6600 0.3583 -0.6604
vn 0.7176 0.5521 -0.4245
vn 0.6462 0.0308 -0.7626
vn -0.7745 -0.5180 0.3630
vn -0.6706 0.5620 -0.4843
vn -0.8005 0.4467 -0.3996
vn -0.7665 -0.6046 0.2167
vn -0.6439 0.5593 -0.5221
vn -0.6461 -0.6935 0.3188
vn -0.7499 0.5992 -0.2805
vn -0.7253 -0.5122 0.4600
vn 0.6563 0.5093 -0.5568
vn 0.7592 0.5781 -0.2990
vn 0.7690 0.4132 -0.4878
vn 0.7236 -0.6739 0.1490
vn 0.6541 -0.7082 0.2658
vn 0.7335 -0.5222 0.4350
vn 0.7042 -0.3904 0.5931
vn 0.6052 0.6934 -0.3911
vn 0.7275 -0.0544 0.6839
vn 0.5858 -0.3062 0.7504
vn 0.6280 -0.7753 -0.0678
vn -0.5896 0.0237 -0.8073
vn 0.6425 0.6558 -0.3963
vn 0.5896 0.0237 -0.8073
vn -0.6425 0.6558 -0.3963
vn 0.7418 0.6250 -0.2429
vn 0.5968 -0.7658 -0.2397
vn 0.6384 -0.6076 0.4725
vn -0.5968 -0.7658 -0.2397
vn 0.7842 -0.4789 0.3945
vn -0.7842 -0.4789 0.3945
vn -0.6760 -0.6403 0.3647
vn 0.6760 -0.6403 0.3647
vn 0.7262 0.5670 -0.3889
vn -0.7105 -0.5548 0.4329
vn 0.7105 -0.5548 0.4329
vn 0.6988 0.5545 -0.4519
vn -0.6384 -0.6076 0.4725
vn -0.7262 0.5670 -0.3889
vn -0.6988 0.5545 -0.4519
vn -0.7418 0.6250 -0.2429
vn -0.6032 -0.0601 -0.7953
vn 0.6602 0.4961 -0.5639
vn 0.6032 -0.0601 -0.7953
vn -0.6602 0.4961 -0.5639
vn 0.7130 0.5581 -0.4245
vn -0.7130 0.5581 -0.4245
vn -0.7201 -0.5318 0.4458
vn -0.5770 -0.1149 0.8086
vn -0.5759 0.8113 0.1008
vn -0.7562 -0.3750 0.5362
vn -0.7690 -0.0939 0.6324
vn -0.6266 -0.2348 0.7432
vn 0.6266 -0.2348 0.7432
vn 0.7690 -0.0939 0.6324
vn -0.5675 -0.8228 -0.0304
vn 0.5675 -0.8228 -0.0304
vn 0.5770 -0.1149 0.8086
vn 0.5759 0.8113 0.1008
vn 0.7562 -0.3750 0.5362
vn 0.7201 -0.5318 0.4458
vn -0.2743 -0.9556 -0.1073
vn -0.4854 0.1893 -0.8536
vn 0.0435 0.0674 -0.9968
vn -0.7063 -0.6532 -0.2727
vn -0.4854 0.8729 0.0504
vn 0.0435 0.9774 0.2068
vn -0.2743 -0.1571 0.9487
vn -0.7063 0.0844 0.7028
vn 0.6708 0.0603 -0.7392
vn 0.6708 0.7277 0.1434
vn 0.5357 -0.8273 -0.1690
vn 0.0888 -0.9940 -0.0640
vn 0.5357 -0.0628 0.8420
vn 0.0888 -0.2093 0.9738
# 127 vertex normals

vt 0.6177 0.0176 0.0000
vt 0.6505 0.0751 0.0000
vt 0.6220 0.0769 0.0000
vt 0.6528 0.0103 0.0000
vt 0.5943 0.0306 0.0000
vt 0.5933 0.0780 0.0000
vt 0.5751 0.0480 0.0000
vt 0.6948 0.0199 0.0000
vt 0.6927 0.0764 0.0000
vt 0.7241 0.0429 0.0000
vt 0.7230 0.0777 0.0000
vt 0.7581 0.0578 0.0000
vt 0.7538 0.0829 0.0000
vt 0.5629 0.0840 0.0000
vt 0.5521 0.0625 0.0000
vt 0.6030 0.1443 0.0000
vt 0.6315 0.1437 0.0000
vt 0.7160 0.1341 0.0000
vt 0.6886 0.1322 0.0000
vt 0.6530 0.1364 0.0000
vt 0.7426 0.1409 0.0000
vt 0.6881 0.1513 0.0000
vt 0.7125 0.1522 0.0000
vt 0.6544 0.1498 0.0000
vt 0.7397 0.1519 0.0000
vt 0.6009 0.1942 0.0000
vt 0.6310 0.1952 0.0000
vt 0.6878 0.1921 0.0000
vt 0.7128 0.1923 0.0000
vt 0.6565 0.1940 0.0000
vt 0.7345 0.1933 0.0000
vt 0.6196 0.2686 0.0000
vt 0.5893 0.2659 0.0000
vt 0.6928 0.2614 0.0000
vt 0.7194 0.2613 0.0000
vt 0.6579 0.2643 0.0000
vt 0.7486 0.2612 0.0000
vt 0.5548 0.2539 0.0000
vt 0.5728 0.1884 0.0000
vt 0.5760 0.1492 0.0000
vt 0.5759 0.1398 0.0000
vt 0.9516 0.0540 0.0000
vt 0.9149 0.0081 0.0000
vt 0.9149 0.0540 0.0000
vt 0.9516 0.0081 0.0000
vt 0.9898 0.0081 0.0000
vt 0.9898 0.0540 0.0000
vt 0.8765 0.0081 0.0000
vt 0.8765 0.0540 0.0000
vt 0.8361 0.0540 0.0000
vt 0.8361 0.0081 0.0000
vt 0.8065 0.0081 0.0000
vt 0.8065 0.0540 0.0000
vt 0.7755 0.0081 0.0000
vt 0.7755 0.0540 0.0000
vt 0.9149 0.0998 0.0000
vt 0.9516 0.0998 0.0000
vt 0.8361 0.0998 0.0000
vt 0.8065 0.0998 0.0000
vt 0.8765 0.0998 0.0000
vt 0.7755 0.0998 0.0000
vt 0.9898 0.0998 0.0000
vt 0.9469 0.9734 0.0000
vt 0.9928 0.9822 0.0000
vt 0.9954 0.9672 0.0000
vt 0.9776 0.9447 0.0000
vt 0.9452 0.9394 0.0000
vt 0.9322 0.9417 0.0000
vt 0.9314 0.9758 0.0000
vt 0.9692 0.9075 0.0000
vt 0.9435 0.9065 0.0000
vt 0.9486 0.8715 0.0000
vt 0.9677 0.8723 0.0000
vt 0.9481 0.8472 0.0000
vt 0.9858 0.8524 0.0000
vt 0.9544 0.8140 0.0000
vt 0.9861 0.8171 0.0000
vt 0.9340 0.8457 0.0000
vt 0.9311 0.8120 0.0000
vt 0.9301 0.8708 0.0000
vt 0.9094 0.8707 0.0000
vt 0.8978 0.8462 0.0000
vt 0.8982 0.8129 0.0000
vt 0.8816 0.8511 0.0000
vt 0.8952 0.8742 0.0000
vt 0.9084 0.9082 0.0000
vt 0.9343 0.9076 0.0000
vt 0.9000 0.9464 0.0000
vt 0.8884 0.9389 0.0000
vt 0.8973 0.9058 0.0000
vt 0.8727 0.9638 0.0000
vt 0.8839 0.9695 0.0000
vt 0.8705 0.9800 0.0000
vt 0.8849 0.9838 0.0000
vt 0.9334 0.9895 0.0000
vt 0.8876 0.9974 0.0000
vt 0.8773 0.8156 0.0000
vt 0.9397 0.4163 0.0000
vt 0.9096 0.3883 0.0000
vt 0.9061 0.4183 0.0000
vt 0.9334 0.3873 0.0000
vt 0.9023 0.3546 0.0000
vt 0.8742 0.4164 0.0000
vt 0.8676 0.3856 0.0000
vt 0.8733 0.4454 0.0000
vt 0.9033 0.4472 0.0000
vt 0.8769 0.3558 0.0000
vt 0.8461 0.3543 0.0000
vt 0.8458 0.3136 0.0000
vt 0.8744 0.3136 0.0000
vt 0.9024 0.3158 0.0000
vt 0.8458 0.2731 0.0000
vt 0.8748 0.2737 0.0000
vt 0.9032 0.2743 0.0000
vt 0.8437 0.4187 0.0000
vt 0.8409 0.3851 0.0000
vt 0.9602 0.2733 0.0000
vt 0.9323 0.3148 0.0000
vt 0.9608 0.3123 0.0000
vt 0.9313 0.2737 0.0000
vt 0.9570 0.3517 0.0000
vt 0.9340 0.3532 0.0000
vt 0.9768 0.3773 0.0000
vt 0.9715 0.4108 0.0000
vt 0.6981 0.6758 0.0000
vt 0.6891 0.6183 0.0000
vt 0.6866 0.6767 0.0000
vt 0.7008 0.6193 0.0000
vt 0.6953 0.5736 0.0000
vt 0.7069 0.5750 0.0000
vt 0.7306 0.5782 0.0000
vt 0.7326 0.5331 0.0000
vt 0.7075 0.5309 0.0000
vt 0.7307 0.6279 0.0000
vt 0.7324 0.6581 0.0000
vt 0.7390 0.6866 0.0000
vt 0.7455 0.6860 0.0000
vt 0.7474 0.6571 0.0000
vt 0.7370 0.7017 0.0000
vt 0.6917 0.6854 0.0000
vt 0.7306 0.7114 0.0000
vt 0.7338 0.5216 0.0000
vt 0.7083 0.5192 0.0000
vt 0.7449 0.6272 0.0000
vt 0.7418 0.5783 0.0000
vt 0.7424 0.5332 0.0000
vt 0.7501 0.7004 0.0000
vt 0.7837 0.6685 0.0000
vt 0.7736 0.6159 0.0000
vt 0.7653 0.5754 0.0000
vt 0.7670 0.5326 0.0000
vt 0.6961 0.5301 0.0000
vt 0.4598 0.4707 0.0000
vt 0.4746 0.4566 0.0000
vt 0.4481 0.4550 0.0000
vt 0.4720 0.4671 0.0000
vt 0.4761 0.4438 0.0000
vt 0.4498 0.4394 0.0000
vt 0.4648 0.4268 0.0000
vt 0.4760 0.4329 0.0000
vt 0.4152 0.4500 0.0000
vt 0.4167 0.4370 0.0000
vt 0.4209 0.4635 0.0000
vt 0.4356 0.4704 0.0000
vt 0.4252 0.4249 0.0000
vt 0.4411 0.4215 0.0000
vt 0.9747 0.2620 0.0000
vt 0.9916 0.2778 0.0000
vt 0.9916 0.2620 0.0000
vt 0.9747 0.2779 0.0000
vt 0.9916 0.2483 0.0000
vt 0.9747 0.2483 0.0000
vt 0.9916 0.3080 0.0000
vt 0.9747 0.3082 0.0000
vt 0.9916 0.3281 0.0000
vt 0.9747 0.3281 0.0000
vt 0.9747 0.3464 0.0000
vt 0.9916 0.3464 0.0000
# 178 texture coords

o PiernaI
g PiernaI
usemtl Hiccup_HiccupTeen
s 1
f 1/1/1 2/2/2 3/3/3 
f 4/4/4 2/2/2 1/1/1 
f 3/3/3 5/5/5 1/1/1 
f 6/6/6 5/5/5 3/3/3 
f 6/6/6 7/7/7 5/5/5 
f 4/4/4 8/8/8 2/2/2 
f 2/2/2 8/8/8 9/9/9 
f 8/8/8 10/10/10 9/9/9 
f 9/9/9 10/10/10 11/11/11 
f 10/10/10 12/12/12 11/11/11 
f 11/11/11 12/12/12 13/13/13 
f 13/14/13 7/7/7 6/6/6 
f 12/15/12 7/7/7 13/14/13 
f 6/6/6 3/3/3 14/16/14 
f 14/16/14 3/3/3 15/17/15 
f 16/18/16 9/9/9 11/11/11 
f 11/11/11 13/13/13 16/18/16 
f 17/19/17 9/9/9 16/18/16 
f 17/19/17 2/2/2 9/9/9 
f 18/20/18 2/2/2 17/19/17 
f 16/18/16 13/13/13 19/21/19 
f 18/20/18 3/3/3 2/2/2 
f 15/17/15 3/3/3 18/20/18 
f 17/19/17 16/18/16 20/22/20 
f 20/22/20 18/20/18 17/19/17 
f 20/22/20 16/18/16 21/23/21 
f 22/24/22 18/20/18 20/22/20 
f 22/24/22 15/17/15 18/20/18 
f 23/25/23 16/18/16 19/21/19 
f 21/23/21 16/18/16 23/25/23 
f 14/16/14 15/17/15 24/26/24 
f 24/26/24 15/17/15 25/27/25 
f 15/17/15 22/24/22 25/27/25 
f 20/22/20 21/23/21 26/28/26 
f 26/28/26 21/23/21 27/29/27 
f 28/30/28 20/22/20 26/28/26 
f 22/24/22 20/22/20 28/30/28 
f 25/27/25 22/24/22 28/30/28 
f 29/31/29 21/23/21 23/25/23 
f 27/29/27 21/23/21 29/31/29 
f 30/32/30 24/26/24 25/27/25 
f 31/33/31 24/26/24 30/32/30 
f 26/28/26 27/29/27 32/34/32 
f 32/34/32 28/30/28 26/28/26 
f 32/34/32 27/29/27 33/35/33 
f 27/29/27 29/31/29 33/35/33 
f 34/36/34 28/30/28 32/34/32 
f 34/36/34 25/27/25 28/30/28 
f 30/32/30 25/27/25 34/36/34 
f 33/35/33 29/31/29 35/37/35 
f 35/38/35 24/26/24 31/33/31 
f 29/39/29 24/26/24 35/38/35 
f 29/39/29 23/40/23 24/26/24 
f 24/26/24 23/40/23 14/16/14 
f 23/40/23 19/41/19 14/16/14 
f 19/41/19 6/6/6 14/16/14 
f 13/14/13 6/6/6 19/41/19 
f 36/42/36 30/43/30 37/44/37 
f 31/45/31 30/43/30 36/42/36 
f 36/42/36 35/46/35 31/45/31 
f 38/47/38 35/46/35 36/42/36 
f 30/43/30 34/48/34 37/44/37 
f 37/44/37 34/48/34 39/49/39 
f 39/49/39 34/48/34 40/50/40 
f 40/50/40 34/48/34 32/51/32 
f 32/51/32 33/52/33 40/50/40 
f 40/50/40 33/52/33 41/53/41 
f 33/52/33 35/54/35 41/53/41 
f 41/53/41 35/54/35 38/55/38 
f 42/56/42 36/42/36 37/44/37 
f 37/44/37 39/49/39 42/56/42 
f 43/57/43 36/42/36 42/56/42 
f 43/57/43 38/47/38 36/42/36 
f 40/50/40 41/53/41 44/58/44 
f 44/58/44 41/53/41 45/59/45 
f 46/60/46 40/50/40 44/58/44 
f 39/49/39 40/50/40 46/60/46 
f 42/56/42 39/49/39 46/60/46 
f 47/61/47 41/53/41 38/55/38 
f 45/59/45 41/53/41 47/61/47 
f 47/62/47 38/47/38 43/57/43 
f 48/63/48 49/64/49 50/65/50 
f 50/65/50 51/66/51 48/63/48 
f 48/63/48 51/66/51 52/67/52 
f 53/68/53 48/63/48 52/67/52 
f 54/69/54 48/63/48 53/68/53 
f 51/66/51 55/70/55 52/67/52 
f 52/67/52 55/70/55 56/71/56 
f 55/70/55 57/72/57 56/71/56 
f 58/73/58 57/72/57 55/70/55 
f 58/73/58 59/74/59 57/72/57 
f 60/75/60 59/74/59 58/73/58 
f 60/75/60 61/76/61 59/74/59 
f 62/77/62 61/76/61 60/75/60 
f 59/74/59 61/76/61 63/78/63 
f 63/78/63 61/76/61 64/79/64 
f 65/80/65 59/74/59 63/78/63 
f 65/80/65 63/78/63 66/81/66 
f 66/81/66 63/78/63 67/82/67 
f 63/78/63 64/79/64 67/82/67 
f 67/82/67 64/79/64 68/83/68 
f 60/84/60 66/81/66 67/82/67 
f 58/85/58 66/81/66 60/84/60 
f 57/72/57 59/74/59 65/80/65 
f 69/86/69 65/80/65 66/81/66 
f 70/87/70 65/80/65 69/86/69 
f 56/71/56 65/80/65 70/87/70 
f 69/86/69 53/68/53 70/87/70 
f 71/88/71 53/68/53 69/86/69 
f 69/86/69 51/89/51 71/88/71 
f 55/90/55 51/89/51 69/86/69 
f 66/81/66 55/90/55 69/86/69 
f 58/85/58 55/90/55 66/81/66 
f 51/89/51 50/91/50 71/88/71 
f 71/88/71 50/91/50 72/92/72 
f 50/91/50 49/93/49 72/92/72 
f 72/92/72 49/93/49 73/94/73 
f 71/88/71 54/69/54 53/68/53 
f 72/92/72 54/69/54 71/88/71 
f 72/92/72 73/94/73 54/69/54 
f 73/94/73 48/95/48 54/69/54 
f 49/96/49 48/95/48 73/94/73 
f 53/68/53 52/67/52 70/87/70 
f 70/87/70 52/67/52 56/71/56 
f 57/72/57 65/80/65 56/71/56 
f 62/97/62 67/82/67 68/83/68 
f 60/84/60 67/82/67 62/97/62 
f 74/98/74 75/99/75 76/100/76 
f 77/101/77 75/99/75 74/98/74 
f 77/101/77 78/102/78 75/99/75 
f 79/103/79 75/99/75 80/104/80 
f 76/100/76 75/99/75 79/103/79 
f 81/105/81 76/100/76 79/103/79 
f 74/106/74 76/100/76 81/105/81 
f 75/99/75 78/102/78 80/104/80 
f 80/104/80 78/102/78 82/107/82 
f 82/107/82 83/108/83 80/104/80 
f 82/107/82 84/109/84 83/108/83 
f 85/110/85 84/109/84 82/107/82 
f 78/102/78 86/111/86 82/107/82 
f 82/107/82 86/111/86 85/110/85 
f 85/110/85 87/112/87 84/109/84 
f 88/113/88 87/112/87 85/110/85 
f 86/111/86 88/113/88 85/110/85 
f 89/114/89 88/113/88 86/111/86 
f 79/103/79 80/104/80 81/115/81 
f 81/115/81 80/104/80 90/116/90 
f 80/104/80 83/108/83 90/116/90 
f 87/117/87 91/118/91 84/119/84 
f 92/120/92 91/118/91 87/117/87 
f 84/119/84 91/118/91 83/121/83 
f 83/121/83 91/118/91 93/122/93 
f 83/121/83 93/122/93 90/123/90 
f 90/123/90 93/122/93 77/101/77 
f 77/101/77 81/124/81 90/123/90 
f 74/98/74 81/124/81 77/101/77 
f 92/120/92 89/114/89 91/118/91 
f 91/118/91 89/114/89 86/111/86 
f 91/118/91 86/111/86 93/122/93 
f 93/122/93 86/111/86 78/102/78 
f 93/122/93 78/102/78 77/101/77 
f 94/125/94 95/126/95 96/127/96 
f 97/128/97 95/126/95 94/125/94 
f 97/128/97 98/129/98 95/126/95 
f 99/130/99 98/129/98 97/128/97 
f 99/130/99 97/128/97 100/131/100 
f 101/132/101 99/130/99 100/131/100 
f 102/133/102 99/130/99 101/132/101 
f 100/131/100 97/128/97 103/134/103 
f 97/128/97 104/135/104 103/134/103 
f 94/125/94 104/135/104 97/128/97 
f 104/135/104 94/125/94 105/136/105 
f 106/137/106 104/135/104 105/136/105 
f 107/138/107 104/135/104 106/137/106 
f 105/136/105 94/125/94 108/139/108 
f 107/138/107 103/134/103 104/135/104 
f 108/139/108 96/140/96 109/141/109 
f 94/125/94 96/140/96 108/139/108 
f 110/142/110 102/133/102 101/132/101 
f 111/143/111 102/133/102 110/142/110 
f 112/144/112 103/134/103 107/138/107 
f 112/144/112 100/131/100 103/134/103 
f 113/145/113 100/131/100 112/144/112 
f 113/145/113 101/132/101 100/131/100 
f 110/146/110 101/132/101 113/145/113 
f 108/139/108 106/137/106 105/136/105 
f 109/147/109 106/137/106 108/139/108 
f 109/147/109 96/148/96 106/137/106 
f 106/137/106 96/148/96 107/138/107 
f 96/148/96 95/149/95 107/138/107 
f 107/138/107 95/149/95 112/144/112 
f 112/144/112 95/149/95 113/145/113 
f 113/145/113 95/149/95 98/150/98 
f 113/145/113 98/150/98 110/146/110 
f 110/146/110 98/150/98 111/151/111 
f 99/130/99 111/152/111 98/129/98 
f 102/133/102 111/152/111 99/130/99 
f 114/153/114 115/154/115 116/155/116 
f 117/156/117 115/154/115 114/153/114 
f 115/154/115 118/157/118 116/155/116 
f 116/155/116 118/157/118 119/158/119 
f 118/157/118 120/159/120 119/158/119 
f 121/160/121 120/159/120 118/157/118 
f 116/155/116 119/158/119 122/161/122 
f 122/161/122 119/158/119 123/162/123 
f 122/161/122 124/163/124 116/155/116 
f 116/155/116 124/163/124 125/164/125 
f 114/153/114 116/155/116 125/164/125 
f 119/158/119 126/165/126 123/162/123 
f 127/166/127 126/165/126 119/158/119 
f 119/158/119 120/159/120 127/166/127 
f 117/167/117 120/168/120 121/169/121 
f 114/170/114 120/168/120 117/167/117 
f 118/171/118 117/167/117 121/169/121 
f 115/172/115 117/167/117 118/171/118 
f 114/170/114 127/173/127 120/168/120 
f 125/174/125 127/173/127 114/170/114 
f 125/174/125 126/175/126 127/173/127 
f 124/176/124 126/175/126 125/174/125 
f 124/176/124 122/177/122 126/175/126 
f 126/175/126 122/177/122 123/178/123 
# 221 faces

