# Blender 4.2.1 LTS
# www.blender.org
mtllib casilla21.mtl
o Cube
v 0.654000 0.100000 -0.653566
v 0.654000 -0.100000 -0.653566
v 0.654000 0.100000 0.653566
v 0.654000 -0.100000 0.653566
v -0.654000 0.100000 -0.653566
v -0.654000 -0.100000 -0.653566
v -0.654000 0.100000 0.653566
v -0.654000 -0.100000 0.653566
vn -0.0000 1.0000 -0.0000
vn -0.0000 -0.0000 1.0000
vn -1.0000 -0.0000 -0.0000
vn -0.0000 -1.0000 -0.0000
vn 1.0000 -0.0000 -0.0000
vn -0.0000 -0.0000 -1.0000
vt 0.870662 0.870199
vt 0.999928 0.870247
vt 0.999772 0.999917
vt 0.870534 0.999884
vt 0.466845 0.469310
vt 0.540726 0.469310
vt 0.540726 0.543192
vt 0.466845 0.543192
vt 0.474596 0.493241
vt 0.527633 0.493241
vt 0.527633 0.546278
vt 0.474596 0.546278
vt 0.487771 0.441260
vt 0.536472 0.441260
vt 0.536472 0.555639
vt 0.487771 0.555639
vt 0.492815 0.495349
vt 0.539779 0.495349
vt 0.539779 0.542314
vt 0.492815 0.542314
vt 0.457160 0.470128
vt 0.543806 0.470128
vt 0.543806 0.556774
vt 0.457160 0.556774
s 0
usemtl Material.003
f 1/1/1 5/2/1 7/3/1 3/4/1
f 4/5/2 3/6/2 7/7/2 8/8/2
f 8/9/3 7/10/3 5/11/3 6/12/3
f 6/13/4 2/14/4 4/15/4 8/16/4
f 2/17/5 1/18/5 3/19/5 4/20/5
f 6/21/6 5/22/6 1/23/6 2/24/6
